<?xml version="1.0" encoding="utf-8"?>
<!-- Generator: Adobe Illustrator 24.2.3, SVG Export Plug-In . SVG Version: 6.00 Build 0)  -->
<svg version="1.1" id="Layer_1" xmlns="http://www.w3.org/2000/svg" xmlns:xlink="http://www.w3.org/1999/xlink" x="0px" y="0px"
	 viewBox="0 0 776.2 240" style="enable-background:new 0 0 776.2 240;" xml:space="preserve">
<style type="text/css">
	.st0{fill:#00999D;}
	.st1{fill:url(#SVGID_1_);}
	.st2{fill:#F7E93A;}
	.st3{fill:#E6B041;}
	.st4{fill:#FFFFFF;}
	.st5{fill:#78BABD;}
	.st6{fill:#8492A2;}
	.st7{fill:none;stroke:#FFFFFF;stroke-miterlimit:10;}
	.st8{fill:#D5DEE3;}
	.st9{fill:#C52170;}
	.st10{fill:#EBEBEB;}
	.st11{fill:#D1E5E9;}
	.st12{fill:none;}
	.st13{font-family:'ArialMT';}
	.st14{font-size:12px;}
	.st15{font-family:'OpenSans-ExtraBold';}
	.st16{font-size:52px;}
	.st17{fill:#F7EA3A;}
	.st18{font-family:'OpenSans-SemiBold';}
	.st19{font-size:18px;}
</style>
<path class="st0" d="M744.8,211.9c2.8-2.8,5.2-5.6,7.5-8.4l15.7-34.6l4.5-8c2.1-6.3,2.5-18.4,2.5-18.4l0,13.9l0.1-0.2V-4.6H-0.9
	v246.5h685C684,241.8,724.4,232.4,744.8,211.9z"/>
<linearGradient id="SVGID_1_" gradientUnits="userSpaceOnUse" x1="794.0704" y1="174.0929" x2="459.2891" y2="85.244" gradientTransform="matrix(1 0 0 -1 0 240.7244)">
	<stop  offset="0.3459" style="stop-color:#153C6A"/>
	<stop  offset="0.8066" style="stop-color:#0F2F53"/>
</linearGradient>
<path class="st1" d="M489,197.3c-8.5-1.2-14.4-8.9-13.2-17.1l0,0c1.2-8.3,9.1-14,17.6-12.8l21.3,3c8.4-0.1,13.1-3,15-9.7
	c2-7.3-2.4-14.9-10-16.9l-15.9-4.2l0-0.3l-31.7-8.3c-8.9-2.3-14.1-11.2-11.7-19.8c2-7.2,8.7-11.9,16-11.9l24,6.3
	c7.6,2,15.3-2.4,17.4-9.7c2-7.3-2.4-14.9-10-16.8L442.6,62c-8.5-2.6-13.4-11.2-11.1-19.6l0,0c2.4-8.6,11.5-13.7,20.4-11.4l48,12.6
	l29.3,7.7l39,10.2c7.6,2,15.3-2.4,17.4-9.7l0,0c2-7.3-2.4-14.9-10-16.8c0,0-20-3.7-34.3-8S529-4.6,529-4.6h25.8c3.7,0,24.1,0,24.1,0
	l196.3,0l0,100.8h0l-0.1,22.4l-0.1,23.9c0,0-29.1,71.5-48.5,81.8c-19.4,10.3-73.2,17.5-73.2,17.5H548.2c0,0-0.9-21.8-11.1-30.4
	C526.9,202.8,489,197.3,489,197.3z"/>
<polygon class="st2" points="676.5,51.5 678.3,49.4 678.7,52.1 681.5,52.6 679.3,54.3 680.3,56.9 677.7,55.9 675.9,58.1 675.5,55.3 
	672.7,54.9 674.9,53.1 673.9,50.5 "/>
<polygon class="st2" points="608,6.3 609.8,4.1 610.2,6.9 613,7.3 610.8,9.1 611.8,11.7 609.2,10.7 607.4,12.9 607,10.1 604.2,9.7 
	606.4,7.9 605.4,5.3 "/>
<polygon class="st3" points="536.3,72.6 538.1,70.4 538.5,73.1 541.3,73.6 539.1,75.3 540.1,77.9 537.5,76.9 535.7,79.1 535.3,76.3 
	532.5,75.9 534.7,74.2 533.7,71.5 "/>
<circle class="st4" cx="626.2" cy="88.6" r="2.9"/>
<circle class="st4" cx="530.7" cy="134.3" r="1.8"/>
<circle class="st4" cx="565.8" cy="105.7" r="1.8"/>
<circle class="st5" cx="574" cy="168.9" r="2.9"/>
<circle class="st4" cx="617.2" cy="204.3" r="2.1"/>
<g>
	<path class="st6" d="M653,168.2c-5.9-22.3,2.5-45.5,20.1-61.8l-2.2-1.8c-18.4,16.3-27.4,40.1-21.3,62.9
		c6.2,23.3,26.4,39.6,51.1,44.3C677.6,206.3,658.9,190.4,653,168.2z"/>
	<line class="st7" x1="671" y1="150.2" x2="679.9" y2="152.9"/>
	<path class="st0" d="M694.4,117.2l-10.1-11.5c-21.9,13.2-33.4,39.8-26.5,65.7c5.3,19.8,20,34.6,38,40.8c-11.8-7.3-21-19-24.8-33.5
		C664.6,154.7,674.7,130.2,694.4,117.2z"/>
	<path class="st8" d="M684.2,106.6l-3.9-4.4c-22.7,12.1-34.9,39-27.9,65.4c4.8,18.1,17.6,32,33.6,38.6c-13-7.4-23.1-19.8-27.3-35.5
		C651.9,145.2,663,119.3,684.2,106.6z"/>
	<path class="st9" d="M713,145"/>
	<path class="st0" d="M724.5,142.9c-0.8,0.2-1.5,0.5-2.1,0.8l3.9,4.1c4.2-0.9,8.4,1.7,9.5,5.9c1.2,4.3-1.4,8.8-5.8,9.9
		c-4.3,1.1-8.8-1.4-9.9-5.8c-0.8-3.2,0.3-6.4,2.7-8.4l-3.4-3.8c-3.8,3.2-5.6,8.4-4.2,13.5c1.9,7.1,9.1,11.2,16.2,9.4
		c7.1-1.9,11.2-9.1,9.4-16.2C738.8,145.3,731.5,141.1,724.5,142.9z"/>
	<circle class="st4" cx="674.2" cy="126.1" r="2.1"/>
	<path class="st10" d="M652,238.7c13.3,3.8,69.4,15.9,106.5-36c0,0,0-0.1,0.1-0.1c23.2-37.1,20.6-78.8,1.1-103.9
		c-0.1-0.1-0.1-0.1-0.2-0.2c-35-33.9-78.6-13.7-82.5-11.5c-3.8,2.1,1.7,7.7,2.1,8.1c0,0,0,0,0,0.1l42.8,47.6
		c0.3,0.3,0.5,0.9,0.8,1.1c0.6-0.3,1.3-0.5,2-0.7c6.9-1.8,14,2.3,15.8,9.2c1.8,6.9-2.3,14-9.2,15.8c-6.9,1.8-14-2.3-15.8-9.2
		c-1.3-4.9,0.4-9.9,3.9-13c-9.4-10.2-40.1-44.9-45.2-50.4c-0.5-0.5-1.2-0.6-1.8-0.3c-0.7,0.4-1.7,1.1-3.1,2.3
		c-3.1,2.7-2.3,2.9-2.3,2.9s38.1,41,43,48.2c0.2,0.3,0.3,0.7,0.2,1c-2.4,16.3,6.5,21.7,11.5,23.5c1.2,0.4,1.3,1.9,0.3,2.6
		c-11.2,7.3-52.3,34.5-57.7,37.9c-0.1,0-0.1,0.1-0.2,0.1c-0.5,0.5-3.5,3.2-3.7,5.2c-0.2,1.8-0.3,8.1-0.4,10.3c0,0.5-0.2,0.9-0.6,1.2
		l-7.9,5.6C650.6,236.8,650.8,238.4,652,238.7z M713.3,201.6l7.8-5.5l1.3,5l-7.8,5.3L713.3,201.6z M691.8,216.1l16.5-11.3l1.3,4.9
		l-16.5,11.4L691.8,216.1z M682.7,222.1l4.5-3.2l1.5,5.5l-4.6,2.8L682.7,222.1z M677.1,225.8l4.6-2.8l1.4,5.1l-4.5,3.2L677.1,225.8z
		"/>
	<path class="st11" d="M664.3,213.8c-6.7,4.5-4.2,16.3-4.2,16.3l30.9-21.7l-10.9-5C680.2,203.4,671,209.2,664.3,213.8z"/>
	<polygon class="st6" points="715.5,192.1 715.9,193.6 660.1,230 660.2,228.3 	"/>
</g>
<circle class="st4" cx="746.1" cy="9.6" r="2.1"/>
<rect x="69.3" y="186.1" class="st12" width="327" height="42.9"/>
<g>
	<text transform="matrix(1 0 0 1 65.491 81.2015)" class="st13 st14">   </text>
	<text transform="matrix(1 0 0 1 65.491 81.2015)" class="st4 st15 st16">Hans Jakob </text>
	<text transform="matrix(1 0 0 1 378.8621 81.2015)" class="st13 st14">   </text>
	<text transform="matrix(1 0 0 1 65.491 143.6015)" class="st4 st15 st16">Emmel</text>
	<text transform="matrix(1 0 0 1 246.9832 143.6015)" class="st13 st14">  </text>
	<rect x="69.3" y="164.8" class="st17" width="31.9" height="5.9"/>
	<text transform="matrix(1 0 0 1 68.2938 196.3339)" class="st4 st18 st19">Software Engineer</text>
</g>
</svg>
