<svg id="Layer_1" data-name="Layer 1" xmlns="http://www.w3.org/2000/svg" xmlns:xlink="http://www.w3.org/1999/xlink" viewBox="0 0 292.06 212.77"><defs><style>.cls-1{fill:url(#linear-gradient);}.cls-2{fill:#f7e93a;}.cls-3{fill:#e6b041;}.cls-4{fill:#fff;}.cls-5{fill:#78babd;}.cls-6{fill:#71d3d3;}.cls-7{fill:#8492a2;}.cls-8{fill:none;stroke:#fff;stroke-miterlimit:10;}.cls-9{fill:#00999d;}.cls-10{fill:#d5dee3;}.cls-11{fill:#c52170;}.cls-12{fill:#ebebeb;}.cls-13{fill:#d1e5e9;}</style><linearGradient id="linear-gradient" x1="5.4" y1="116.64" x2="243.92" y2="116.64" gradientUnits="userSpaceOnUse"><stop offset="0.35" stop-color="#153c6a"/><stop offset="0.81" stop-color="#0f2f53"/></linearGradient></defs><path class="cls-1" d="M61,217c16.41,4,32,14.87,73.5-9s79.56-48.34,79.56-48.34l0-.19,5.69-3.28a12.7,12.7,0,0,0,4.66-17.37h0a12.73,12.73,0,0,0-13.35-6.13l0-.34L208.34,134a10.83,10.83,0,1,1-10.84-18.75L208.39,109l0-.24,21.74-12.53a12.71,12.71,0,0,0,4.66-17.37h0a12.74,12.74,0,0,0-14.25-5.93L204,82.38a10.83,10.83,0,1,1-10.85-18.75L238,37.79a12.7,12.7,0,0,0,4.21-17.08h0a12.74,12.74,0,0,0-17.39-4.65L191.92,35l-20.11,11.6L145.08,62a10.87,10.87,0,0,1-14.82-4h0a10.84,10.84,0,0,1,4-14.8l21.09-12.16a11.66,11.66,0,0,0-13-19.31l-16.51,9.52s-67.93,42.61-87.58,54c-23,16.69-32.44,52-32.44,52s-5.45,37.5,23,70.87C28.78,198.15,44.62,213,61,217Z" transform="translate(-3.97 -10.25)"/><polygon class="cls-2" points="79.1 50.34 77.14 48.9 77.4 51.31 75.18 52.3 77.4 53.28 77.14 55.69 79.1 54.26 81.06 55.69 80.8 53.28 83.02 52.3 80.8 51.31 81.06 48.9 79.1 50.34"/><polygon class="cls-3" points="161.54 61.6 159.58 60.16 159.84 62.58 157.62 63.56 159.84 64.54 159.58 66.96 161.54 65.52 163.5 66.96 163.24 64.54 165.46 63.56 163.24 62.58 163.5 60.16 161.54 61.6"/><circle class="cls-4" cx="115.6" cy="67.96" r="2.55"/><circle class="cls-4" cx="205.9" cy="84.99" r="1.61"/><circle class="cls-4" cx="205.9" cy="84.99" r="1.61"/><circle class="cls-5" cx="118.15" cy="25.58" r="2.55"/><circle class="cls-4" cx="148.88" cy="163.07" r="1.8"/><path class="cls-6" d="M171.44,130.83v-17h3.15a1.41,1.41,0,0,1,.79.21,1.08,1.08,0,0,1,.45.64l.3,1c.33-.3.66-.59,1-.85a6.07,6.07,0,0,1,1.13-.66,7,7,0,0,1,1.29-.43,7.16,7.16,0,0,1,1.51-.15,6,6,0,0,1,2.47.48,5.07,5.07,0,0,1,1.81,1.34,5.88,5.88,0,0,1,1.11,2,8.51,8.51,0,0,1,.38,2.58v10.79h-5.08V120a3,3,0,0,0-.57-1.94,2.05,2.05,0,0,0-1.69-.7,3.54,3.54,0,0,0-1.57.36,6.34,6.34,0,0,0-1.41,1v12.1Z" transform="translate(-3.97 -10.25)"/><path class="cls-6" d="M149.85,130.83h-5.57V120.74h-9.69v10.09H129V107h5.57v10h9.69V107h5.57Z" transform="translate(-3.97 -10.25)"/><path class="cls-6" d="M165.51,130.83a2.42,2.42,0,0,1-1.09-.19,1.52,1.52,0,0,1-.61-.82l-.36-.93c-.43.36-.84.67-1.23,1a7.77,7.77,0,0,1-1.22.69,6.56,6.56,0,0,1-1.34.43,8.6,8.6,0,0,1-1.58.14,6.74,6.74,0,0,1-2.12-.31,4.41,4.41,0,0,1-1.61-.89,4,4,0,0,1-1-1.47,5.37,5.37,0,0,1-.36-2,4.18,4.18,0,0,1,.46-1.86,4.49,4.49,0,0,1,1.58-1.73,10.14,10.14,0,0,1,3.05-1.31,18.65,18.65,0,0,1,4.83-.53v-.72a3.17,3.17,0,0,0-.61-2.18,2.27,2.27,0,0,0-1.75-.67,4.61,4.61,0,0,0-1.47.2,6.94,6.94,0,0,0-1,.44c-.3.17-.6.31-.88.44a2.41,2.41,0,0,1-1,.2,1.53,1.53,0,0,1-.89-.25,1.94,1.94,0,0,1-.58-.63l-.92-1.59a10.48,10.48,0,0,1,3.42-2,12,12,0,0,1,4-.66,7.44,7.44,0,0,1,2.78.5,5.91,5.91,0,0,1,3.41,3.51,7.56,7.56,0,0,1,.46,2.69v10.61Zm-5.83-3.09a4,4,0,0,0,1.72-.35,5.09,5.09,0,0,0,1.49-1.11V124a13.13,13.13,0,0,0-2.5.2,6.22,6.22,0,0,0-1.56.5,1.81,1.81,0,0,0-.79.68,1.58,1.58,0,0,0-.22.82,1.41,1.41,0,0,0,.47,1.23A2.28,2.28,0,0,0,159.68,127.74Z" transform="translate(-3.97 -10.25)"/><path class="cls-6" d="M200.83,117.57a1.37,1.37,0,0,1-.42.44,1.06,1.06,0,0,1-.56.13,1.71,1.71,0,0,1-.72-.16l-.78-.33c-.28-.12-.59-.23-.94-.34a4.38,4.38,0,0,0-1.2-.15,2.49,2.49,0,0,0-1.48.37,1.16,1.16,0,0,0-.52,1,1,1,0,0,0,.34.79,3,3,0,0,0,.89.54,11.36,11.36,0,0,0,1.26.45l1.44.48a12.94,12.94,0,0,1,1.44.61,6,6,0,0,1,1.27.87,4,4,0,0,1,.89,1.26,4.29,4.29,0,0,1,.33,1.76,5.9,5.9,0,0,1-.45,2.33,5.13,5.13,0,0,1-1.37,1.84,6.51,6.51,0,0,1-2.25,1.19,10.21,10.21,0,0,1-3.07.43,9.14,9.14,0,0,1-1.73-.17,11.5,11.5,0,0,1-1.68-.44,9.31,9.31,0,0,1-1.5-.66,7,7,0,0,1-1.18-.83l1.18-1.87a1.55,1.55,0,0,1,.51-.51,1.35,1.35,0,0,1,.77-.19,1.59,1.59,0,0,1,.79.19l.76.43a6.23,6.23,0,0,0,1,.43,4.22,4.22,0,0,0,1.38.19,3.55,3.55,0,0,0,1-.12,1.58,1.58,0,0,0,.66-.34,1.44,1.44,0,0,0,.36-.47,1.24,1.24,0,0,0,.11-.54,1.11,1.11,0,0,0-.34-.84,3.23,3.23,0,0,0-.9-.56,9.34,9.34,0,0,0-1.27-.44c-.47-.14-1-.3-1.45-.47a12.23,12.23,0,0,1-1.45-.63,5.11,5.11,0,0,1-1.27-.94,4.23,4.23,0,0,1-.9-1.38,5.09,5.09,0,0,1-.34-2,5.33,5.33,0,0,1,.41-2.06,4.75,4.75,0,0,1,1.26-1.71,6.09,6.09,0,0,1,2.09-1.17,9.08,9.08,0,0,1,3-.43,9.43,9.43,0,0,1,1.78.16,8.69,8.69,0,0,1,3,1.15,7,7,0,0,1,1.1.88Z" transform="translate(-3.97 -10.25)"/><path class="cls-6" d="M221.34,122.19a12.49,12.49,0,0,1-.5,3.63,7.83,7.83,0,0,1-1.51,2.81,6.72,6.72,0,0,1-2.53,1.82,9.17,9.17,0,0,1-3.59.65c-.62,0-1.23,0-1.84-.1a17.06,17.06,0,0,1-1.89-.33l.29-3.23a1,1,0,0,1,.34-.68,1.21,1.21,0,0,1,.84-.27,3.26,3.26,0,0,1,.69.09,4.61,4.61,0,0,0,1,.09,4,4,0,0,0,1.4-.22,2.11,2.11,0,0,0,1-.73,3.48,3.48,0,0,0,.59-1.36,8.59,8.59,0,0,0,.2-2.06V107h5.54Z" transform="translate(-3.97 -10.25)"/><path class="cls-6" d="M237,130.83a2.39,2.39,0,0,1-1.09-.19,1.53,1.53,0,0,1-.62-.82l-.36-.93c-.42.36-.83.67-1.23,1a7.77,7.77,0,0,1-1.22.69,6.36,6.36,0,0,1-1.34.43,8.44,8.44,0,0,1-1.58.14,6.64,6.64,0,0,1-2.11-.31,4.46,4.46,0,0,1-1.62-.89,4,4,0,0,1-1-1.47,5.37,5.37,0,0,1-.36-2,4.18,4.18,0,0,1,.46-1.86,4.44,4.44,0,0,1,1.59-1.73,10.07,10.07,0,0,1,3-1.31,18.68,18.68,0,0,1,4.84-.53v-.72a3.17,3.17,0,0,0-.62-2.18,2.27,2.27,0,0,0-1.74-.67,4.72,4.72,0,0,0-1.48.2,6.94,6.94,0,0,0-1,.44c-.3.17-.59.31-.88.44a2.39,2.39,0,0,1-1,.2,1.51,1.51,0,0,1-.89-.25,1.86,1.86,0,0,1-.59-.63l-.91-1.59a10.33,10.33,0,0,1,3.41-2,12,12,0,0,1,4-.66,7.44,7.44,0,0,1,2.78.5,5.84,5.84,0,0,1,3.41,3.51,7.56,7.56,0,0,1,.46,2.69v10.61Zm-5.83-3.09a4.06,4.06,0,0,0,1.72-.35,5.23,5.23,0,0,0,1.49-1.11V124a13.25,13.25,0,0,0-2.51.2,6.36,6.36,0,0,0-1.56.5,1.87,1.87,0,0,0-.79.68,1.58,1.58,0,0,0-.22.82,1.44,1.44,0,0,0,.47,1.23A2.29,2.29,0,0,0,231.17,127.74Z" transform="translate(-3.97 -10.25)"/><path class="cls-6" d="M248,106.31v13.75h.76a1.77,1.77,0,0,0,.73-.13,1.37,1.37,0,0,0,.48-.48l3.21-4.78a1.87,1.87,0,0,1,.66-.63,2.2,2.2,0,0,1,1-.19h4.65l-4.39,6a4.55,4.55,0,0,1-.68.76,6.76,6.76,0,0,1-.79.59,5,5,0,0,1,1.27,1.47l4.79,8.12h-4.59a2.5,2.5,0,0,1-1-.18,1.47,1.47,0,0,1-.68-.67l-3.21-6a1.2,1.2,0,0,0-.48-.53,1.72,1.72,0,0,0-.73-.12h-1v7.51h-5.07V106.31Z" transform="translate(-3.97 -10.25)"/><path class="cls-6" d="M268.38,113.59a9.89,9.89,0,0,1,3.52.6,7.62,7.62,0,0,1,4.5,4.48,10,10,0,0,1,.63,3.63,10.11,10.11,0,0,1-.63,3.66,7.84,7.84,0,0,1-1.77,2.77,7.76,7.76,0,0,1-2.73,1.75,9.67,9.67,0,0,1-3.52.62,9.83,9.83,0,0,1-3.55-.62,7.94,7.94,0,0,1-2.75-1.75A7.73,7.73,0,0,1,260.3,126a10.11,10.11,0,0,1-.63-3.66,10,10,0,0,1,.63-3.63,7.69,7.69,0,0,1,1.78-2.74,7.86,7.86,0,0,1,2.76-1.74A10,10,0,0,1,268.38,113.59Zm0,13.74a2.87,2.87,0,0,0,2.58-1.24,8.91,8.91,0,0,0,0-7.51,2.89,2.89,0,0,0-2.58-1.23,3,3,0,0,0-2.64,1.23,8.91,8.91,0,0,0,0,7.51A3,3,0,0,0,268.38,127.33Z" transform="translate(-3.97 -10.25)"/><path class="cls-6" d="M279.81,130.83V106.31h5.08v9.34a7.89,7.89,0,0,1,2.16-1.5,6.51,6.51,0,0,1,2.82-.56,5.36,5.36,0,0,1,2.46.57,5.55,5.55,0,0,1,1.95,1.68,8.63,8.63,0,0,1,1.28,2.71,12.77,12.77,0,0,1,.47,3.65,11.43,11.43,0,0,1-.53,3.54,9,9,0,0,1-1.49,2.82,6.9,6.9,0,0,1-2.3,1.87,6.56,6.56,0,0,1-2.95.67,5.46,5.46,0,0,1-1.35-.15,4.65,4.65,0,0,1-1.1-.42,4.51,4.51,0,0,1-.92-.65,10.32,10.32,0,0,1-.81-.81l-.18.85a1.11,1.11,0,0,1-.42.72,1.42,1.42,0,0,1-.79.19Zm8.29-13.43a4.37,4.37,0,0,0-1,.11,3.8,3.8,0,0,0-.84.3,3.15,3.15,0,0,0-.71.5,7.49,7.49,0,0,0-.66.7v7.21a3.25,3.25,0,0,0,1.25.89,3.88,3.88,0,0,0,1.41.25,2.9,2.9,0,0,0,1.29-.28,2.6,2.6,0,0,0,1-.89,4.65,4.65,0,0,0,.68-1.6,9.63,9.63,0,0,0,.25-2.39,11.07,11.07,0,0,0-.2-2.26,4.54,4.54,0,0,0-.55-1.48,2,2,0,0,0-.84-.81A2.34,2.34,0,0,0,288.1,117.4Z" transform="translate(-3.97 -10.25)"/><path class="cls-6" d="M144.38,142.26v4.25h-9.79v5.57h7.5v4.1h-7.5v5.68h9.79v4.26H129V142.26Z" transform="translate(-3.97 -10.25)"/><path class="cls-6" d="M147.53,166.12v-17h3.14a1.44,1.44,0,0,1,.8.21,1.14,1.14,0,0,1,.45.64l.28.91a9.59,9.59,0,0,1,.88-.81,6.44,6.44,0,0,1,1-.64,5.43,5.43,0,0,1,1.15-.42,5.68,5.68,0,0,1,1.35-.16,4,4,0,0,1,2.55.8,4.93,4.93,0,0,1,1.53,2.12,5,5,0,0,1,1-1.34,5.29,5.29,0,0,1,1.33-.9,6.32,6.32,0,0,1,1.5-.51,7.79,7.79,0,0,1,1.58-.17,7.17,7.17,0,0,1,2.59.44,4.91,4.91,0,0,1,1.89,1.26,5.4,5.4,0,0,1,1.16,2,8.82,8.82,0,0,1,.39,2.73v10.79h-5.08V155.33c0-1.76-.75-2.64-2.26-2.64a2.32,2.32,0,0,0-1.71.68,2.67,2.67,0,0,0-.68,2v10.79h-5.08V155.33a2.92,2.92,0,0,0-.57-2.05,2.27,2.27,0,0,0-1.69-.59,2.8,2.8,0,0,0-1.3.31,4.77,4.77,0,0,0-1.15.84v12.28Z" transform="translate(-3.97 -10.25)"/><path class="cls-6" d="M175.73,166.12v-17h3.15a1.39,1.39,0,0,1,.79.21,1.05,1.05,0,0,1,.45.64l.28.91a11.22,11.22,0,0,1,.89-.81,5.6,5.6,0,0,1,1-.64,5.34,5.34,0,0,1,1.14-.42,5.7,5.7,0,0,1,1.36-.16,4,4,0,0,1,2.54.8,4.77,4.77,0,0,1,1.53,2.12,5.38,5.38,0,0,1,2.37-2.24,6.55,6.55,0,0,1,1.51-.51,7.79,7.79,0,0,1,1.58-.17,7.21,7.21,0,0,1,2.59.44,5,5,0,0,1,1.89,1.26,5.38,5.38,0,0,1,1.15,2,8.52,8.52,0,0,1,.4,2.73v10.79h-5.08V155.33c0-1.76-.75-2.64-2.26-2.64a2.32,2.32,0,0,0-1.71.68,2.63,2.63,0,0,0-.68,2v10.79h-5.08V155.33a2.92,2.92,0,0,0-.57-2.05,2.28,2.28,0,0,0-1.69-.59,2.8,2.8,0,0,0-1.3.31,4.82,4.82,0,0,0-1.16.84v12.28Z" transform="translate(-3.97 -10.25)"/><path class="cls-6" d="M211.21,148.87a8.71,8.71,0,0,1,3.09.53,6.74,6.74,0,0,1,2.41,1.52,6.88,6.88,0,0,1,1.57,2.45,8.92,8.92,0,0,1,.57,3.28,7.69,7.69,0,0,1,0,.94,1.37,1.37,0,0,1-.18.57.78.78,0,0,1-.35.3,1.82,1.82,0,0,1-.57.08h-9.79a4.77,4.77,0,0,0,1.29,3.09,3.89,3.89,0,0,0,2.7,1,5,5,0,0,0,1.53-.21,8,8,0,0,0,1.13-.47l.92-.48a1.93,1.93,0,0,1,.88-.21,1,1,0,0,1,.91.44l1.48,1.82a7.22,7.22,0,0,1-1.7,1.46,8.34,8.34,0,0,1-1.86.89,10.23,10.23,0,0,1-1.92.44,14.77,14.77,0,0,1-1.83.12,9.51,9.51,0,0,1-3.35-.58,7.52,7.52,0,0,1-2.73-1.73,8,8,0,0,1-1.85-2.85,10.46,10.46,0,0,1-.68-4,8.94,8.94,0,0,1,.58-3.23,7.78,7.78,0,0,1,4.31-4.48A8.62,8.62,0,0,1,211.21,148.87Zm.1,3.51a3,3,0,0,0-2.27.83,4.3,4.3,0,0,0-1.09,2.38h6.34a4.66,4.66,0,0,0-.15-1.18,2.88,2.88,0,0,0-.51-1,2.45,2.45,0,0,0-.93-.73A3.08,3.08,0,0,0,211.31,152.38Z" transform="translate(-3.97 -10.25)"/><path class="cls-6" d="M227,141.6v24.52h-5.07V141.6Z" transform="translate(-3.97 -10.25)"/><path class="cls-7" d="M113.73,151.27c0-20.08-12.27-37.66-30.66-47.4l1.44-2c19.09,9.6,31.93,27.53,31.93,48.06,0,20.9-13.32,39.11-33,48.57C101.62,188.67,113.73,171.2,113.73,151.27Z" transform="translate(-3.97 -10.25)"/><line class="cls-8" x1="90.7" y1="129.91" x2="83.81" y2="134.13"/><path class="cls-9" d="M67.65,117.63l5.94-11.88a51.35,51.35,0,0,1,14.07,91.94,49,49,0,0,0-20-80.06Z" transform="translate(-3.97 -10.25)"/><path class="cls-10" d="M73.86,106.52l2.26-4.59a50.22,50.22,0,0,1,18.44,88.5,50.26,50.26,0,0,0-20.7-83.91Z" transform="translate(-3.97 -10.25)"/><path class="cls-11" d="M58.22,145.13" transform="translate(-3.97 -10.25)"/><path class="cls-9" d="M48.14,146a11.52,11.52,0,0,1,2,.18l-2.36,4.27a7,7,0,1,0,3.32.62l2-4a11.46,11.46,0,1,1-4.9-1.11Z" transform="translate(-3.97 -10.25)"/><circle class="cls-4" cx="82.63" cy="110.36" r="1.8"/><path class="cls-12" d="M130.07,207.89,122.15,205a1.26,1.26,0,0,1-.78-.84c-.53-1.81-2.08-7.08-2.63-8.56-.59-1.63-3.66-3.24-4.24-3.53l-.18-.07C109.1,190.28,68.5,176.7,57.51,173a1.27,1.27,0,0,1-.31-2.27c3.75-2.58,10-9.15,4.39-22.29a1.3,1.3,0,0,1,0-.91c2.51-7.15,25.36-50,25.36-50s.61-.3-2.57-1.89a19.84,19.84,0,0,0-3.1-1.28,1.26,1.26,0,0,0-1.47.63c-3,5.74-21.12,41.71-26.7,52.39a11.7,11.7,0,1,1-3.19-1,10.69,10.69,0,0,0,.4-1.11l25.3-49.46,0,0c.26-.44,3.65-6.34,0-7.26S30.73,80.25,8.89,116.54a1,1,0,0,0-.1.18c-10.83,25.38-3.68,61,24,86.95l.08.07C75.56,239,120,216.32,130.28,210.2A1.29,1.29,0,0,0,130.07,207.89ZM70.55,197l-7.73-2.69v-4.49l7.73,2.92Zm21.3,7.62-16.36-5.94v-4.37l16.36,5.82Zm9,3.14-4.48-1.35v-4.93l4.48,1.68Zm5.56,2.17-4.48-1.68v-4.6l4.48,1.35Z" transform="translate(-3.97 -10.25)"/><path class="cls-13" d="M114.41,192c6.66,2.3,7.14,12.74,7.14,12.74L90.8,193.4l8-6.58S107.75,189.68,114.41,192Z" transform="translate(-3.97 -10.25)"/><polygon class="cls-7" points="62.66 174.95 62.66 176.3 117.58 194.47 117.11 193.01 62.66 174.95"/></svg>